<?xml version="1.0" encoding="utf-8"?>
<!-- Generator: Adobe Illustrator 19.0.0, SVG Export Plug-In . SVG Version: 6.00 Build 0)  -->
<svg version="1.1" id="Layer_1" xmlns="http://www.w3.org/2000/svg" xmlns:xlink="http://www.w3.org/1999/xlink" x="0px" y="0px"
	 width="500px" height="500px" viewBox="154 -154 500 500" style="enable-background:new 154 -154 500 500;" xml:space="preserve">
<style type="text/css">
	.st0{fill:#00BCD4;}
	.st1{fill:#F4F4F4;}
	.st2{fill:#FFFFFF;}
	.st3{fill:#59616A;}
	.st4{fill:#7E848B;}
</style>
<path class="st0" d="M404,346c-138.1,0-250-111.9-250-250c0-138.1,111.9-250,250-250c138.1,0,250,111.9,250,250
	C654,234.1,542.1,346,404,346z"/>
<polyline class="st1" points="502.5,96 502.5,-35.3 305.5,-35.3 305.5,96 "/>
<polygon class="st2" points="305.5,96 305.5,227.3 338.3,206.3 371.2,227.3 404,206.3 436.8,227.3 469.6,203.6 502.5,227.3 
	502.5,96 "/>
<g>
	<polyline class="st3" points="484.8,31.5 484.8,39.4 325.7,39.4 325.7,31.5 	"/>
	<rect x="325.7" y="53.3" class="st3" width="159.1" height="7.9"/>
	<rect x="325.7" y="75.1" class="st3" width="159.1" height="7.9"/>
	<rect x="325.7" y="109.4" class="st3" width="159.1" height="7.9"/>
	<rect x="325.7" y="131.2" class="st3" width="159.1" height="7.9"/>
	<rect x="325.7" y="153" class="st3" width="159.1" height="7.9"/>
	<rect x="325.7" y="174.9" class="st3" width="159.1" height="7.9"/>
</g>
<path class="st4" d="M479.1,1.2c-1.4,0-2.6,0.5-3.6,1.6c-1,1.1-1.7,2.3-2,3.6c-0.4,1.3-0.5,2.4-0.5,3.4c0,2.1,0.4,3.7,1.4,4.7
	c0.9,1,2,1.5,3.3,1.5c2,0,3.5-0.9,4.6-2.8c1.1-1.8,1.7-3.8,1.7-5.9c0-1.7-0.4-3.1-1.2-4.3C482,1.8,480.8,1.2,479.1,1.2z M480.6,11.5
	c-0.6,1.7-1.5,2.6-2.8,2.6c-0.8,0-1.4-0.3-1.8-0.9c-0.5-0.6-0.7-1.4-0.7-2.5c0-1.5,0.3-3.2,0.9-4.9c0.6-1.8,1.5-2.7,2.9-2.7
	c0.8,0,1.4,0.3,1.8,0.9c0.4,0.6,0.6,1.4,0.6,2.5C481.5,8.1,481.2,9.8,480.6,11.5z M470,13.2c1.1-1.8,1.7-3.8,1.7-5.9
	c0-1.7-0.4-3.1-1.2-4.3c-0.8-1.2-2-1.8-3.6-1.8c-1.4,0-2.6,0.5-3.6,1.6c-1,1.1-1.7,2.3-2,3.6c-0.4,1.3-0.5,2.4-0.5,3.4
	c0,2.1,0.4,3.7,1.4,4.7c0.9,1,2,1.5,3.3,1.5C467.3,16,468.8,15.1,470,13.2z M465.5,14.1c-0.8,0-1.4-0.3-1.8-0.9
	c-0.5-0.6-0.7-1.4-0.7-2.5c0-1.5,0.3-3.2,0.9-4.9c0.6-1.8,1.6-2.7,2.9-2.7c0.8,0,1.4,0.3,1.8,0.9c0.4,0.6,0.6,1.4,0.6,2.5
	c0,1.6-0.3,3.2-0.9,4.9C467.7,13.2,466.7,14.1,465.5,14.1z M452.9,16c2,0,3.5-0.9,4.7-2.8c1.1-1.8,1.7-3.8,1.7-5.9
	c0-1.7-0.4-3.1-1.2-4.3c-0.8-1.2-2-1.8-3.6-1.8c-1.4,0-2.6,0.5-3.6,1.6c-1,1.1-1.7,2.3-2,3.6c-0.4,1.3-0.5,2.4-0.5,3.4
	c0,2.1,0.5,3.7,1.4,4.7C450.5,15.4,451.6,16,452.9,16z M451.5,5.7c0.6-1.8,1.5-2.7,2.9-2.7c0.8,0,1.3,0.3,1.8,0.9
	c0.4,0.6,0.6,1.4,0.6,2.5c0,1.6-0.3,3.2-0.9,4.9c-0.6,1.7-1.5,2.6-2.8,2.6c-0.8,0-1.4-0.3-1.8-0.9c-0.5-0.6-0.7-1.4-0.7-2.5
	C450.6,9.1,450.9,7.5,451.5,5.7z M440.6,16c2,0,3.5-0.9,4.6-2.8c1.1-1.8,1.7-3.8,1.7-5.9c0-1.7-0.4-3.1-1.2-4.3
	c-0.8-1.2-2-1.8-3.6-1.8c-1.4,0-2.6,0.5-3.6,1.6c-1,1.1-1.7,2.3-2,3.6c-0.4,1.3-0.5,2.4-0.5,3.4c0,2.1,0.5,3.7,1.4,4.7
	C438.1,15.4,439.3,16,440.6,16z M439.2,5.7c0.6-1.8,1.6-2.7,2.9-2.7c0.8,0,1.4,0.3,1.8,0.9c0.4,0.6,0.6,1.4,0.6,2.5
	c0,1.6-0.3,3.2-0.9,4.9c-0.6,1.7-1.5,2.6-2.8,2.6c-0.8,0-1.4-0.3-1.8-0.9c-0.4-0.6-0.7-1.4-0.7-2.5C438.3,9.1,438.6,7.5,439.2,5.7z
	 M427.6,13.2c1.1-1.8,1.7-3.8,1.7-5.9c0-1.7-0.4-3.1-1.2-4.3c-0.8-1.2-2-1.8-3.6-1.8c-1.4,0-2.6,0.5-3.6,1.6c-1,1.1-1.7,2.3-2,3.6
	c-0.3,1.3-0.5,2.4-0.5,3.4c0,2.1,0.4,3.7,1.4,4.7c0.9,1,2,1.5,3.3,1.5C424.9,16,426.5,15.1,427.6,13.2z M423.2,14.1
	c-0.8,0-1.4-0.3-1.8-0.9c-0.5-0.6-0.7-1.4-0.7-2.5c0-1.5,0.3-3.2,0.9-4.9c0.6-1.8,1.5-2.7,2.9-2.7c0.8,0,1.4,0.3,1.8,0.9
	c0.4,0.6,0.6,1.4,0.6,2.5c0,1.6-0.3,3.2-0.9,4.9C425.3,13.2,424.4,14.1,423.2,14.1z M412.1,1.2c-1.4,0-2.6,0.5-3.6,1.6
	c-1,1.1-1.7,2.3-2,3.6c-0.4,1.3-0.5,2.4-0.5,3.4c0,2.1,0.4,3.7,1.4,4.7c0.9,1,2,1.5,3.3,1.5c2,0,3.6-0.9,4.7-2.8
	c1.1-1.8,1.7-3.8,1.7-5.9c0-1.7-0.4-3.1-1.2-4.3C414.9,1.8,413.7,1.2,412.1,1.2z M413.6,11.5c-0.6,1.7-1.5,2.6-2.8,2.6
	c-0.8,0-1.4-0.3-1.9-0.9c-0.4-0.6-0.7-1.4-0.7-2.5c0-1.5,0.3-3.2,0.9-4.9c0.6-1.8,1.5-2.7,2.9-2.7c0.8,0,1.4,0.3,1.8,0.9
	c0.4,0.6,0.7,1.4,0.7,2.5C414.5,8.1,414.2,9.8,413.6,11.5z M399.7,1.2c-1.4,0-2.6,0.5-3.6,1.6c-1,1.1-1.7,2.3-2,3.6
	c-0.4,1.3-0.5,2.4-0.5,3.4c0,2.1,0.5,3.7,1.4,4.7c0.9,1,2,1.5,3.3,1.5c2,0,3.5-0.9,4.7-2.8c1.1-1.8,1.7-3.8,1.7-5.9
	c0-1.7-0.4-3.1-1.2-4.3C402.6,1.8,401.3,1.2,399.7,1.2z M401.2,11.5c-0.6,1.7-1.5,2.6-2.8,2.6c-0.8,0-1.4-0.3-1.8-0.9
	c-0.4-0.6-0.7-1.4-0.7-2.5c0-1.5,0.3-3.2,0.9-4.9c0.6-1.8,1.5-2.7,2.9-2.7c0.8,0,1.4,0.3,1.8,0.9c0.4,0.6,0.6,1.4,0.6,2.5
	C402.1,8.1,401.8,9.8,401.2,11.5z M385.9,16c2,0,3.5-0.9,4.6-2.8c1.1-1.8,1.7-3.8,1.7-5.9c0-1.7-0.4-3.1-1.2-4.3
	c-0.8-1.2-2-1.8-3.6-1.8c-1.4,0-2.6,0.5-3.6,1.6c-1,1.1-1.7,2.3-2,3.6c-0.4,1.3-0.5,2.4-0.5,3.4c0,2.1,0.4,3.7,1.4,4.7
	C383.4,15.4,384.5,16,385.9,16z M384.5,5.7c0.6-1.8,1.6-2.7,2.9-2.7c0.8,0,1.4,0.3,1.8,0.9c0.4,0.6,0.6,1.4,0.6,2.5
	c0,1.6-0.3,3.2-0.9,4.9c-0.6,1.7-1.5,2.6-2.8,2.6c-0.8,0-1.4-0.3-1.9-0.9c-0.4-0.6-0.7-1.4-0.7-2.5C383.6,9.1,383.9,7.5,384.5,5.7z
	 M368.2,16c2,0,3.5-0.9,4.6-2.8c1.1-1.8,1.7-3.8,1.7-5.9c0-1.7-0.4-3.1-1.2-4.3c-0.8-1.2-2-1.8-3.6-1.8c-1.4,0-2.6,0.5-3.6,1.6
	c-1,1.1-1.7,2.3-2,3.6c-0.4,1.3-0.5,2.4-0.5,3.4c0,2.1,0.5,3.7,1.4,4.7C365.8,15.4,366.9,16,368.2,16z M366.8,5.7
	c0.6-1.8,1.6-2.7,2.9-2.7c0.8,0,1.4,0.3,1.8,0.9c0.4,0.6,0.6,1.4,0.6,2.5c0,1.6-0.3,3.2-0.9,4.9c-0.6,1.7-1.5,2.6-2.8,2.6
	c-0.8,0-1.4-0.3-1.8-0.9c-0.4-0.6-0.7-1.4-0.7-2.5C365.9,9.1,366.2,7.5,366.8,5.7z M355.9,16c2,0,3.5-0.9,4.7-2.8
	c1.1-1.8,1.7-3.8,1.7-5.9c0-1.7-0.4-3.1-1.2-4.3c-0.8-1.2-2-1.8-3.6-1.8c-1.4,0-2.6,0.5-3.6,1.6c-1,1.1-1.7,2.3-2,3.6
	c-0.4,1.3-0.5,2.4-0.5,3.4c0,2.1,0.5,3.7,1.4,4.7C353.5,15.4,354.6,16,355.9,16z M354.5,5.7c0.6-1.8,1.5-2.7,2.9-2.7
	c0.8,0,1.4,0.3,1.8,0.9c0.4,0.6,0.7,1.4,0.7,2.5c0,1.6-0.3,3.2-0.9,4.9c-0.6,1.7-1.5,2.6-2.8,2.6c-0.8,0-1.4-0.3-1.8-0.9
	c-0.5-0.6-0.7-1.4-0.7-2.5C353.6,9.1,353.9,7.5,354.5,5.7z M343.5,16c2,0,3.5-0.9,4.7-2.8c1.1-1.8,1.7-3.8,1.7-5.9
	c0-1.7-0.4-3.1-1.2-4.3c-0.8-1.2-2-1.8-3.6-1.8c-1.4,0-2.6,0.5-3.6,1.6c-1,1.1-1.7,2.3-2,3.6c-0.4,1.3-0.5,2.4-0.5,3.4
	c0,2.1,0.4,3.7,1.4,4.7C341.1,15.4,342.2,16,343.5,16z M342.1,5.7c0.6-1.8,1.5-2.7,2.9-2.7c0.8,0,1.4,0.3,1.8,0.9
	c0.4,0.6,0.6,1.4,0.6,2.5c0,1.6-0.3,3.2-0.9,4.9c-0.6,1.7-1.5,2.6-2.8,2.6c-0.8,0-1.4-0.3-1.9-0.9c-0.4-0.6-0.7-1.4-0.7-2.5
	C341.2,9.1,341.5,7.5,342.1,5.7z M331.2,16c2,0,3.5-0.9,4.7-2.8c1.1-1.8,1.7-3.8,1.7-5.9c0-1.7-0.4-3.1-1.2-4.3
	c-0.8-1.2-2-1.8-3.6-1.8c-1.4,0-2.6,0.5-3.6,1.6c-1,1.1-1.7,2.3-2,3.6c-0.4,1.3-0.5,2.4-0.5,3.4c0,2.1,0.4,3.7,1.4,4.7
	C328.7,15.4,329.9,16,331.2,16z M329.8,5.7c0.6-1.8,1.5-2.7,2.9-2.7c0.8,0,1.4,0.3,1.8,0.9c0.4,0.6,0.6,1.4,0.6,2.5
	c0,1.6-0.3,3.2-0.9,4.9c-0.6,1.7-1.5,2.6-2.8,2.6c-0.8,0-1.4-0.3-1.9-0.9c-0.4-0.6-0.7-1.4-0.7-2.5C328.9,9.1,329.1,7.5,329.8,5.7z"
	/>
</svg>
