<?xml version="1.0" encoding="utf-8"?>
<!-- Generator: Adobe Illustrator 19.0.0, SVG Export Plug-In . SVG Version: 6.00 Build 0)  -->
<svg version="1.1" id="Layer_1" xmlns="http://www.w3.org/2000/svg" xmlns:xlink="http://www.w3.org/1999/xlink" x="0px" y="0px"
	 width="496.2px" height="496.2px" viewBox="-96.1 95.9 496.2 496.2" style="enable-background:new -96.1 95.9 496.2 496.2;"
	 xml:space="preserve">
<style type="text/css">
	.st0{fill:#FFFFFF;}
	.st1{fill:#1D1D1E;}
	.st2{fill:#E6E7E8;}
	.st3{fill:#E2A379;}
	.st4{fill:#3C3C3F;}
	.st5{fill:#9B9B9A;}
	.st6{fill:#F4B382;}
	.st7{fill:#141414;}
	.st8{fill:#E5A173;}
	.st9{fill:#D89364;}
</style>
<path class="st0" d="M152,95.9C15,95.9-96.1,207-96.1,344S15,592.1,152,592.1S400.1,481,400.1,344S289,95.9,152,95.9z"/>
<path class="st1" d="M330.7,516c-2.7-15.1-43.3-69.1-86.5-78c-26.7-5.5-58.4-8.7-92.6-8.7c-34.4,0-66.3,3.3-92.9,8.8
	C16.1,447-24,500.9-26.7,516c6.9,7.1,14.1,13.8,21.8,20.1c0,0,0,0,0,0.1c42.8,34.9,97.4,55.9,156.9,55.9c0,0,0,0,0,0c0,0,0,0,0,0
	c0.8,0,1.6,0,2.4,0c58.5-0.6,112.2-21.5,154.5-55.9c0,0,0-0.1,0-0.1C316.6,529.8,323.8,523.1,330.7,516z"/>
<path class="st2" d="M208.1,432.4l-16.3-14.1l0-0.1l-40-5.3l-39.6,5.3v0L96,432.3l-1.7,1.4c0,0,0.4,127.4,57.7,127.4
	s57.7-127.4,57.7-127.4L208.1,432.4z"/>
<path class="st3" d="M190.9,378h-77.8c12.1,36.6,1,53.3,1,53.3l26.9,6.1h22l26.9-6.1C189.9,431.3,178.8,414.6,190.9,378z"/>
<polygon class="st4" points="197.3,423 152,441.6 106.7,423 103.4,425.8 152,446 200.6,425.8 "/>
<g>
	<polygon class="st1" points="114.5,423.6 114.5,457.8 145.6,447 145.6,434.3 	"/>
	<polygon class="st1" points="158.4,434.3 158.4,447 189.5,457.8 189.5,423.6 	"/>
	<rect x="142.4" y="432.2" class="st1" width="19.3" height="17.2"/>
</g>
<g>
	<circle class="st5" cx="152" cy="474" r="4.5"/>
	<circle class="st5" cx="152" cy="505" r="4.5"/>
	<circle class="st5" cx="152" cy="536" r="4.5"/>
</g>
<g>
	<path class="st2" d="M322.4,478.7c-5.3-16.9-35-31.7-78.2-40.6l31,121.3c20.5-11.8,39.2-26.4,55.5-43.3
		C328,500.9,325.1,487.1,322.4,478.7z"/>
	<path class="st2" d="M-18.4,478.7c-2.6,8.5-5.5,22.2-8.3,37.4c16.1,16.7,34.4,31.1,54.6,42.8L48.8,477l9.9-38.8
		C16.1,447-13.2,461.9-18.4,478.7z"/>
</g>
<path class="st6" d="M240.3,274.2c0-1,0-2,0-3.1c0-92.4-39.6-113.6-88.3-113.6c-48.7,0-88.3,21.2-88.3,113.6c0,1,0,2.1,0,3.1
	c-7.6,1.7-13,6.6-8.5,32.6c4.8,27.8,10.7,29.1,19.1,27.7c1.5,4,3.2,7.7,4.9,11.3c20.4,41.6,55.7,56.1,72.8,56.1
	c17.1,0,52.4-14.5,72.8-56.1c1.8-3.7,3.5-7.6,5.1-11.7l-0.1,0.4c8.4,1.4,14.3,0.1,19.1-27.7C253.3,280.6,247.9,275.9,240.3,274.2z"
	/>
<path class="st7" d="M240.3,266.3C239.2,177.9,209,155,152,155c-58,0-88.3,23.7-88.3,116.1l0.1-0.1c0,1.1,0,2.1,0,3.2
	c0,0,8.8-1.9,8.8,2.6l2.8,27.6l3.9-1.9c-0.2-12.6,1.2-31.7,2.5-46.5l21.7-18c0,0,26.5,0,48.5,0s46.2-35.3,46.2-35.3l22.2,36
	c1.1,9.4,4.8,44,4.6,63.8l3.9,1.9l2.8-27.6c0-4.5,8.8-2.6,8.8-2.6C240.5,271.6,240.4,268.9,240.3,266.3z"/>
<path class="st8" d="M163.4,350.7c-3.3-0.5-11.4,2.7-11.4,2.7s-8.3-3.1-11.6-2.7c-5.3,0.8-13.1,4.9-13.1,6.4c0,2.4,11,8.8,24.7,8.8
	s24.7-6.5,24.7-8.8C176.7,357.1,168.8,351.4,163.4,350.7z"/>
<path class="st9" d="M152,358.3c-14.6,0-24.7-1.2-24.7-1.2c0,2.4,11,11.5,24.7,11.5c13.7,0,24.7-9.1,24.7-11.5
	C176.7,357.1,166.6,358.3,152,358.3z"/>
</svg>
